<?xml version="1.0" standalone="no"?>
<!DOCTYPE svg PUBLIC "-//W3C//DTD SVG 20010904//EN"
 "http://www.w3.org/TR/2001/REC-SVG-20010904/DTD/svg10.dtd">
<svg version="1.0" xmlns="http://www.w3.org/2000/svg"
 width="360.000000pt" height="360.000000pt" viewBox="0 0 360.000000 360.000000"
 preserveAspectRatio="xMidYMid meet">
<metadata>
Created by potrace 1.11, written by Peter Selinger 2001-2013
</metadata>
<g transform="translate(0.000000,360.000000) scale(0.100000,-0.100000)"
fill="#000000" stroke="none">
<path d="M0 1800 l0 -1800 1800 0 1800 0 0 1800 0 1800 -1800 0 -1800 0 0
-1800z m1703 1395 c22 -22 35 -68 47 -175 10 -92 50 -790 50 -879 0 -24 3 -42
6 -39 3 4 16 177 30 385 24 382 37 524 54 568 11 28 54 43 75 25 30 -25 43
-108 70 -460 15 -202 25 -294 30 -288 2 2 13 111 25 243 12 132 26 263 31 290
16 89 66 129 107 85 25 -27 37 -89 63 -333 12 -111 25 -206 29 -210 4 -5 11
22 14 60 15 145 47 328 61 350 21 31 61 40 85 18 28 -25 40 -69 70 -250 l27
-160 12 60 c36 173 44 199 67 222 33 33 72 28 99 -13 11 -16 33 -85 48 -153
18 -76 34 -124 43 -128 8 -3 43 18 82 51 84 68 125 86 196 86 46 0 216 -43
216 -54 0 -2 -45 -2 -100 1 -129 7 -171 -5 -252 -72 -79 -64 -98 -75 -138 -75
-69 0 -96 42 -126 193 -10 52 -20 83 -25 75 -4 -7 -17 -62 -29 -123 -28 -140
-42 -172 -74 -181 -64 -16 -83 20 -116 221 -15 91 -30 168 -33 172 -4 3 -7 0
-7 -8 0 -33 -50 -377 -59 -407 -14 -47 -29 -62 -62 -62 -56 0 -73 60 -105 384
-12 118 -20 171 -25 155 -4 -13 -17 -129 -29 -258 -29 -324 -43 -381 -94 -381
-30 0 -52 25 -65 75 -10 39 -34 273 -47 470 -12 172 -20 157 -33 -60 -20 -343
-41 -616 -52 -683 -14 -79 -35 -108 -73 -98 -51 13 -59 66 -86 586 -24 449
-32 572 -37 567 -2 -2 -10 -123 -18 -268 -17 -312 -33 -496 -46 -561 -19 -86
-73 -124 -113 -79 -24 27 -42 152 -56 406 -7 116 -15 237 -19 270 -7 57 -8 54
-15 -60 -10 -154 -34 -387 -47 -445 -17 -75 -64 -104 -103 -61 -26 29 -33 67
-61 331 -14 134 -28 246 -30 249 -8 7 -13 -23 -29 -176 -25 -226 -48 -285
-113 -285 -51 0 -72 46 -94 205 -7 48 -14 86 -16 83 -2 -2 -8 -32 -14 -67 -14
-92 -43 -146 -90 -169 -72 -37 -94 -30 -179 60 -65 70 -81 81 -121 88 -47 9
-152 0 -216 -17 -53 -15 -52 -6 3 29 62 39 103 50 184 50 101 -1 156 -34 235
-145 43 -60 97 6 110 135 14 136 38 178 95 165 47 -10 66 -61 91 -244 7 -49
15 -78 19 -70 8 13 12 47 44 311 20 157 46 202 106 183 45 -14 61 -77 90 -364
11 -107 22 -196 24 -198 5 -5 14 81 31 307 9 113 20 221 25 240 14 51 37 80
65 80 31 0 50 -30 64 -100 10 -50 51 -534 51 -605 0 -17 4 -25 9 -20 10 11 24
196 41 520 16 310 32 417 63 437 19 12 44 9 60 -7z m1286 -1623 l-4 -79 115 1
c136 1 186 -12 240 -60 73 -66 78 -154 14 -275 -118 -224 -470 -441 -784 -483
-83 -11 -104 -19 -164 -56 -38 -23 -99 -55 -135 -71 l-66 -28 168 -1 c153 0
169 -2 187 -20 25 -25 25 -55 0 -80 -20 -20 -33 -20 -760 -20 -727 0 -740 0
-760 20 -25 25 -25 55 0 80 18 18 33 20 182 20 l162 0 -110 55 c-389 195 -638
562 -670 991 l-7 84 1198 0 1197 0 -3 -78z"/>
<path d="M760 1506 c0 -61 27 -209 52 -286 118 -365 400 -611 738 -645 l65 -7
-79 46 c-327 190 -517 484 -542 842 l-7 94 -113 0 -114 0 0 -44z"/>
<path d="M3059 1338 c-99 -11 -113 -19 -128 -70 -31 -103 -103 -238 -189 -350
-48 -65 -49 -65 83 -2 220 105 405 270 405 362 0 48 -68 72 -171 60z"/>
</g>
</svg>
