<?xml version="1.0" encoding="UTF-8"?>
<svg width="160px" height="141px" viewBox="0 0 160 141" version="1.1" xmlns="http://www.w3.org/2000/svg" xmlns:xlink="http://www.w3.org/1999/xlink">
    <!-- Generator: Sketch 53.2 (72643) - https://sketchapp.com -->
    <title>tnvo-logo</title>
    <desc>Created with Sketch.</desc>
    <g id="tnvo-logo" stroke="none" stroke-width="1" fill="none" fill-rule="evenodd">
        <path d="M44,137.5 L116,137.5" id="Line" stroke="#FFFFFF" stroke-width="6" stroke-linecap="round"></path>
        <path d="M114.24197,127.032724 C104.495309,133.935373 92.6240545,138 79.8517807,138 C46.9333013,138 20,111 20,78 L139.703561,78 C139.703561,80.7910898 139.510894,83.5392586 139.138232,86.2318005 C148.575786,84.4128203 156.335831,85.9839756 159.028315,91.0478008 C163.176827,98.8500167 153.724052,111.989248 137.914951,120.395096 C129.506675,124.865856 120.993808,127.097208 114.24197,127.032724 Z M124.779419,117.534787 C127.619325,116.528663 130.650796,115.196956 133.718795,113.565672 C145.393208,107.358276 153.175673,99.1637151 151.101417,95.2626072 C149.71363,92.6525593 144.265266,92.6256712 137.314661,94.7527915 C134.825877,103.27335 130.49122,111.023979 124.779415,117.534792 Z M27.9802374,83 C27.9802374,108.856633 45.7480192,130.202789 68.0248519,131.892266 C68.9668441,131.963707 69.9168988,132 70.8740136,132 C55.9110684,124.833569 39.4185777,109.95 39.4185777,83 L27.9802374,83 Z" id="Combined-Shape" fill="#FFFFFF"></path>
        <path d="M35.3667772,30.6841411 C35.3498456,30.8452978 35.3271561,31.0636505 35.2865634,31.4540806 C35.2537919,31.7679967 35.2277388,32.0127528 35.2013204,32.252887 C35.1333656,32.8705708 35.0690173,33.3995223 34.9982433,33.9073123 C34.3290063,38.7089609 33.0637162,41.5796644 29.9787869,42.8629454 C26.4493724,44.3311252 24.1667076,43.2303705 22.037823,40.3082057 C21.8309201,40.0242051 20.9597475,38.7714088 20.7217801,38.4457228 C19.1897307,36.3489346 17.8675728,35.3357341 15.9123123,35.0307253 C12.7530616,34.3272709 8.11562417,34.8575733 2,36.6216327 C5.94640053,32.7539805 10.9237858,31.2010962 16.664671,32.0966397 C19.9710535,32.6124155 22.0254196,34.1867241 24.0548113,36.9641832 C24.3190094,37.3257691 25.1917166,38.5807722 25.3732408,38.8299372 C26.6098911,40.527397 26.9948847,40.71305 28.1734732,40.2227761 C29.6840977,39.5943806 30.6531341,37.3958206 31.184421,33.5839378 C31.2516813,33.1013584 31.313411,32.5939321 31.3790749,31.997071 C31.4049394,31.7619719 31.4305683,31.5212005 31.4629266,31.2112433 C31.5033371,30.8225607 31.5262031,30.6025097 31.5433017,30.4397628 C31.7548397,28.4263179 31.9064434,27.4230969 32.1908484,26.5343601 C32.7221008,24.8742502 33.8076469,23.7994706 35.8461286,24.1174615 C37.7216591,24.4100329 38.4671067,25.7323748 39.1297004,28.2644712 C39.5167605,29.7436186 39.775517,31.2630179 40.2472361,34.5108118 C40.2736208,34.6925329 40.2736208,34.6925329 40.2999601,34.8739774 C40.751679,37.9850272 41.0205767,39.5775909 41.3521997,40.8012576 C41.552446,40.1681859 41.7568144,39.3695322 41.9421419,38.4325604 C42.3480939,36.3801632 42.6567882,33.9694602 43.0651128,30.0119922 C43.1204416,29.4757481 43.317168,27.5411867 43.3055889,27.6545833 C43.7550336,23.2530516 44.0364269,21.0379487 44.4438124,19.1789412 C44.7146935,17.9428389 45.0190838,17.0358547 45.4223698,16.3938061 C46.1968228,15.160844 47.7516635,14.5054869 49.357572,15.3822791 C51.6333351,16.6247978 52.2820451,20.4900835 53.5110689,33.4118902 C53.5535865,33.8589149 53.7001755,35.4084947 53.7258904,35.6793739 C54.1346194,39.9848925 54.4064769,42.5329908 54.707137,44.5926723 C54.9853337,42.6559183 55.2499768,40.2116686 55.6563358,36.0881985 C55.7132436,35.5102547 55.7132436,35.5102547 55.7702827,34.9309739 C56.3396611,29.1532114 56.662626,20.3583939 57.1123079,17.8403414 C57.4037222,16.2085287 57.7151252,14.9820556 58.0798813,14.1240241 C58.7650921,12.5121729 59.9063967,11.4833081 61.9030469,12.2619716 C64.3253853,13.2066471 64.7276723,22.2631774 65.8419048,37.7012325 C65.8788091,38.212909 65.8788091,38.212909 65.915648,38.7239128 C66.3500926,44.7474099 66.6181968,47.9493917 66.9480303,50.4275938 C67.5853328,46.2634904 68.1119793,39.2010442 68.6626667,28.6657282 C68.7191764,27.584628 68.9189624,23.7059942 68.9084769,23.9086951 C69.3534804,15.3060712 69.6327099,10.9477963 70.0267775,7.33630877 C70.2742702,5.06812755 70.5468588,3.41764441 70.8716793,2.34092987 C71.0898236,1.61782527 71.3347836,1.10301995 71.7352158,0.705791531 C72.6963426,-0.247645308 74.3378875,-0.217323922 75.3064249,0.689192081 C77.2259905,2.48583611 77.8981848,10.2914329 79.0859966,34.4474675 C79.1238748,35.2177797 79.2566568,37.9296034 79.2820658,38.4469959 C79.7445431,47.8642207 80.0319111,52.9830753 80.379075,57.3055201 C80.7821347,52.8710421 81.1144497,47.7943924 81.7275096,37.4282722 C81.761379,36.8554983 81.761379,36.8554983 81.7952413,36.282922 C83.0752967,14.6432394 83.6229579,8.44121999 85.0245091,6.80146836 C85.8444615,5.84216111 87.5200315,5.62797221 88.5648909,6.61331326 C88.9500468,6.97652941 89.1713359,7.42717224 89.3769197,8.07365008 C89.6672764,8.98670442 89.9295881,10.3941338 90.1877978,12.3331607 C90.6010319,15.4363445 90.9536245,19.3417402 91.5074035,26.4623451 C91.5670404,27.229169 91.7776874,29.9550746 91.7749296,29.9194592 C92.3602728,37.4788138 92.7076969,41.4484268 93.1341661,44.9688347 C93.1474804,45.0787412 93.1608013,45.1873941 93.1741295,45.294792 C93.4946127,42.7496443 93.7992233,39.5632042 94.289046,33.9755437 C94.3331731,33.4719632 94.3331731,33.4719632 94.3773383,32.9678427 C95.8654883,15.9863955 96.2513458,13.1741534 98.5503204,12.2775879 C99.7388769,11.8140688 100.863638,12.2080623 101.522226,12.9452227 C101.837253,13.2978344 102.069619,13.7423536 102.280745,14.3178553 C102.609112,15.2129451 102.902757,16.498596 103.188161,18.2098885 C103.629731,20.8575565 103.953728,23.6673951 104.598607,29.9795171 C104.623091,30.2191968 104.623091,30.2191968 104.647574,30.4588857 C105.257698,36.431451 105.559036,39.0876606 105.963441,41.6839238 C105.97981,41.7890153 105.996187,41.8925639 106.012571,41.9945675 C106.302034,40.2747328 106.597095,38.0667547 107.030654,34.5565059 C107.099919,33.9951762 107.099919,33.9951762 107.169329,33.4323133 C108.689427,21.1134423 109.104028,18.9533651 111.483398,18.2110303 C113.251828,17.6593016 114.338926,18.5060064 115.026935,19.8306944 C115.390936,20.5315401 115.707077,21.507972 116.014116,22.8008842 C116.475937,24.7455687 116.800286,26.6991619 117.500478,31.410756 L117.501657,31.4186853 C118.128574,35.6372129 118.417479,37.411209 118.809164,39.2097379 C118.829025,39.3009341 118.848867,39.390446 118.868693,39.4782685 C119.090714,38.549516 119.331763,37.3794086 119.634701,35.8072431 C119.695369,35.4923964 119.907126,34.3858369 119.910778,34.366801 C121.469506,26.2410127 121.990963,24.5255847 124.607239,24.1174615 C126.740625,23.784666 127.755451,24.9458452 128.530492,26.9982858 C128.954726,28.1217269 129.283536,29.4498163 129.788186,31.8681076 C129.835799,32.0962705 130.04636,33.1131072 130.103435,33.3862591 C131.003011,37.691473 131.806989,39.999244 132.364115,40.2599691 C132.611216,40.3756081 133.425138,39.8607178 136.5966,37.1212481 C139.419655,34.6827292 141.326172,33.478176 143.788696,33.094037 C147.884541,32.4551099 152.615037,33.5620031 158,36.2999553 C151.334112,35.1414136 146.847797,35.0508027 144.541055,36.0281225 C143.176811,36.2409364 141.716203,37.1637605 139.443892,39.1265542 C139.566615,39.0205475 138.019772,40.3696104 137.603695,40.7187513 C136.881519,41.3247476 136.284739,41.7787188 135.698136,42.1498062 C133.924362,43.2719037 132.141476,43.6452435 130.390359,42.8257525 C128.284819,41.8403977 127.53075,39.6758837 126.317098,33.8675617 C126.259456,33.5916974 126.048811,32.5744549 126.001722,32.3488035 C125.642412,30.6269819 125.377909,29.4914139 125.114619,28.6255117 C125.089315,28.7046715 125.063969,28.7859988 125.038596,28.869468 C124.623495,30.2350186 124.278601,31.8184806 123.704838,34.8095573 C123.70144,34.827271 123.489396,35.9353303 123.428387,36.2519497 C122.875733,39.1200666 122.521048,40.7015362 122.093077,41.9902975 C121.801534,42.8682279 121.495644,43.5248347 121.107732,44.0114685 C120.340844,44.9735256 119.000429,45.4746492 117.602721,44.820547 C115.629112,43.8969335 115.203964,41.9447533 113.690879,31.7632088 C113.084302,27.681552 112.764092,25.7012433 112.396921,24.0246527 C112.369781,24.1588672 112.342656,24.2966038 112.315546,24.4378438 C111.903357,26.5853552 111.580989,28.9131912 110.987975,33.7189724 C110.918604,34.2815136 110.918604,34.2815136 110.849267,34.8434329 C110.248613,39.70655 109.91021,42.1041654 109.478319,44.2007211 C109.197926,45.5618533 108.908751,46.5780129 108.575549,47.2913912 C107.901229,48.7350982 106.702524,49.6934244 104.815083,48.8101362 C102.715566,47.8276003 102.302545,45.17602 100.823402,30.6965425 C100.798916,30.4568187 100.798916,30.4568187 100.774438,30.2171988 C100.233755,24.9249558 99.9204876,22.1152469 99.5764788,19.8142597 C99.5599102,19.9312259 99.5433583,20.0499712 99.5268219,20.1704934 C99.1144028,23.1763241 98.8027535,26.3474281 98.2046996,33.1718883 C98.1605439,33.6759008 98.1605439,33.6759008 98.1164017,34.1796532 C97.5049238,41.1550983 97.1801822,44.4134974 96.7502484,47.3743237 C96.4753373,49.2675545 96.1922666,50.6851046 95.8779094,51.6598032 C95.6797486,52.274222 95.4636435,52.7423711 95.1714352,53.1094806 C94.5169026,53.9317883 93.2972035,54.391347 92.0274442,53.7971226 C89.8707871,52.787846 89.4041336,48.9357253 87.9456157,30.099845 C87.9483336,30.1349455 87.7377345,27.4096599 87.6781505,26.6435164 C87.3751182,22.7470644 87.1327048,19.8194183 86.9083283,17.4666909 C86.5314242,21.9416537 86.1149225,28.1800789 85.6274562,36.4208281 C85.5935977,36.9933401 85.5935977,36.9933401 85.5597263,37.5661494 C84.8932547,48.8353977 84.5577049,53.8700648 84.1013877,58.6355145 C83.8114288,61.6636381 83.5147271,63.9445357 83.1951556,65.5004951 C83.0120839,66.3918518 82.819333,67.0626006 82.5914117,67.5461519 C82.4166946,67.9168267 82.212358,68.2145369 81.8923347,68.4716208 C81.2137588,69.0167405 80.1570915,69.187355 79.2398058,68.7580819 C77.0369968,67.7272071 76.661994,63.269637 75.4485855,38.5615251 C75.423164,38.043877 75.2903867,35.3321523 75.2525235,34.5621428 C74.6891325,23.1046952 74.1687263,14.8539466 73.6495403,9.59886745 C73.3568003,12.8334974 73.1046657,17.0116495 72.7416498,24.0293227 C72.7521772,23.8258114 72.5523384,27.7054708 72.4957739,28.7876172 C71.5724182,46.4525296 70.83633,53.8174692 69.1158063,56.2329912 C67.8466855,58.0147681 65.3879239,57.8805885 64.3950104,56.0725514 C63.9570328,55.27502 63.629988,53.9935555 63.3347374,52.1291564 C62.8908582,49.3262225 62.607194,46.1263832 62.0854124,38.8919737 C62.0485636,38.3808326 62.0485636,38.3808326 62.0116775,37.8694083 C61.5613193,31.6295482 61.302072,22.5907697 60.9324278,19.7822561 C60.8906643,19.4649414 60.848349,19.1608062 60.805462,18.869922 C60.4224531,21.1675191 60.1111351,29.9257721 59.5952918,35.1602873 C59.5382898,35.7391925 59.5382898,35.7391925 59.4813446,36.317515 C58.9567956,41.6403008 58.6657864,44.1960741 58.2730949,46.5002626 C58.0203243,47.9834395 57.7539713,49.107666 57.4476505,49.9081837 C56.8512003,51.4669055 56.0151095,52.4005005 54.1002317,51.9524364 C51.5116671,51.3467356 51.1671921,49.2480655 49.900072,35.9003218 C49.8743,35.6288411 49.7277381,34.0795473 49.6852903,33.633257 C49.1112946,27.5983354 48.5457112,23.2008284 48.0423451,20.5960966 C47.748272,22.2024703 47.4959278,24.306269 47.1297711,27.8921396 C47.1415116,27.7771619 46.9445798,29.7137425 46.8890417,30.2520156 C45.922673,39.6180276 45.2145135,43.1983144 43.1469403,44.6496947 C41.8668739,45.5482666 40.1913397,45.4839496 39.1058116,44.4730486 C38.5194893,43.9270344 38.1275905,43.1486327 37.7857926,42.0601262 C37.3182058,40.5710261 37.031455,38.9532938 36.4880358,35.2106914 C36.4616763,35.0291072 36.4616763,35.0291072 36.4353267,34.8476282 C36.0389056,32.118262 35.7976892,30.6479347 35.5092588,29.4202986 C35.463943,29.7866998 35.4172261,30.2039621 35.3667772,30.6841411 Z" id="Path-2" fill="#FFFFFF" fill-rule="nonzero"></path>
    </g>
</svg>